<svg width="512" height="512" xmlns="http://www.w3.org/2000/svg">

 <g>
  <title>background</title>
  <rect fill="none" id="canvas_background" height="402" width="582" y="-1" x="-1"/>
 </g>
 <g>
  <title>Layer 1</title>
  <path fill="#ff3e00" id="svg_1" d="m437.019531,74.980469c-48.351563,-48.351559 -112.640625,-74.980469 -181.019531,-74.980469s-132.667969,26.62891 -181.019531,74.980469c-48.351559,48.351563 -74.980469,112.640625 -74.980469,181.019531s26.62891,132.667969 74.980469,181.019531c48.351563,48.351563 112.640625,74.980469 181.019531,74.980469c46.8125,0 92.617188,-12.757813 132.460938,-36.894531c9.449219,-5.722656 12.46875,-18.019531 6.746094,-27.464844c-5.722656,-9.449219 -18.023438,-12.46875 -27.46875,-6.746094c-33.59375,20.347656 -72.234375,31.105469 -111.738281,31.105469c-112.359375,0 -204.94141,-86.238281 -215.06641,-196l127.308598,0c9.121094,40.03125 45.003906,70 87.757813,70s78.636719,-29.96875 87.757813,-70l127.304688,0c-3.328125,35.496094 -15.496094,69.683594 -35.6875,99.886719c-6.140625,9.179688 -3.671875,21.601563 5.511719,27.742188c9.179688,6.136719 21.601563,3.667969 27.742188,-5.511719c28.371094,-42.441406 43.371094,-91.585938 43.371094,-142.117188c0,-68.378906 -26.628906,-132.667969 -74.980469,-181.019531zm-181.019531,-34.980469c112.359375,0 204.941406,86.238281 215.066406,196l-127.308594,0c-9.121094,-40.03125 -45.003906,-70 -87.757813,-70s-78.636719,29.96875 -87.757813,70l-127.308598,0c10.125,-109.761719 102.707035,-196 215.06641,-196zm0,266c-27.570313,0 -50,-22.429688 -50,-50s22.429688,-50 50,-50s50,22.429688 50,50s-22.429688,50 -50,50zm0,0"/>
 </g>
</svg>